<?xml version="1.0" standalone="no"?>
<!DOCTYPE svg PUBLIC "-//W3C//DTD SVG 20010904//EN"
 "http://www.w3.org/TR/2001/REC-SVG-20010904/DTD/svg10.dtd">
<svg version="1.0" xmlns="http://www.w3.org/2000/svg"
 width="480.000000pt" height="480.000000pt" viewBox="0 0 480.000000 480.000000"
 preserveAspectRatio="xMidYMid meet">

<g transform="translate(0.000000,480.000000) scale(0.100000,-0.100000)"
fill="#000000" stroke="none">
<path d="M2385 4699 c-97 -27 -151 -171 -93 -251 12 -18 146 -113 322 -229
166 -109 407 -267 536 -352 129 -85 246 -160 259 -167 32 -16 107 -7 139 17
45 34 65 69 69 125 7 99 -8 114 -317 313 -69 44 -280 184 -470 311 -353 237
-380 251 -445 233z"/>
<path d="M2154 4197 c-57 -17 -77 -33 -122 -97 -25 -36 -65 -90 -87 -120 -65
-86 -320 -461 -340 -499 -22 -43 -16 -121 12 -159 20 -28 140 -111 558 -383
350 -228 370 -239 428 -239 69 0 120 30 164 96 l37 56 26 -29 c39 -45 419
-519 472 -589 26 -34 53 -64 60 -66 18 -4 290 -150 286 -153 -2 -1 -34 -19
-73 -40 -251 -135 -472 -254 -545 -295 -47 -26 -112 -62 -145 -80 -33 -18
-136 -74 -230 -125 -93 -51 -190 -103 -215 -115 l-45 -21 -105 56 c-273 148
-402 218 -605 330 -121 67 -265 145 -320 175 -55 29 -127 69 -159 88 l-59 35
49 25 c81 40 366 194 408 220 l38 24 -166 90 -165 90 -243 -130 c-134 -71
-268 -143 -298 -158 -43 -23 -60 -39 -78 -74 -21 -42 -22 -56 -22 -252 l0
-208 -169 -84 c-187 -94 -213 -116 -232 -199 -10 -46 -9 -62 5 -104 9 -27 31
-63 49 -80 29 -28 336 -197 752 -413 144 -75 512 -270 905 -480 80 -43 192
-101 249 -130 101 -50 107 -52 175 -48 90 5 91 5 801 383 132 70 292 154 355
187 63 33 133 71 155 83 22 12 99 53 170 90 72 37 135 71 140 75 6 4 102 56
215 115 113 59 216 117 228 129 45 40 65 93 60 160 -7 107 -23 123 -229 227
l-179 89 0 216 c0 229 -3 246 -52 290 -12 12 -81 52 -153 88 -103 52 -137 75
-165 109 -19 24 -66 80 -105 124 -150 170 -465 538 -568 663 l-27 34 23 25
c36 39 111 151 131 195 22 47 16 112 -15 163 -23 36 -36 45 -844 575 -103 67
-141 80 -191 65z m-1042 -2520 c73 -41 270 -147 438 -237 168 -90 388 -208
490 -264 333 -182 337 -183 430 -146 55 22 403 204 860 452 157 84 328 176
380 202 52 27 101 53 108 59 8 6 17 5 27 -3 12 -10 15 -38 15 -134 0 -77 5
-129 13 -144 7 -14 54 -45 111 -76 55 -29 101 -56 103 -62 1 -5 -77 -49 -174
-99 -171 -87 -259 -134 -743 -392 -124 -66 -274 -146 -335 -178 -60 -32 -123
-65 -140 -75 -16 -9 -84 -45 -150 -80 -66 -34 -125 -67 -132 -72 -8 -6 -47 10
-120 50 -59 32 -180 96 -268 142 -140 72 -418 220 -920 487 -77 41 -151 80
-165 87 -140 73 -240 129 -240 135 0 4 41 27 92 51 147 72 138 58 138 219 0
76 3 141 7 144 15 16 51 3 175 -66z"/>
<path d="M1343 3169 c-23 -4 -52 -15 -66 -23 -38 -26 -69 -91 -69 -147 0 -78
28 -111 183 -208 74 -47 256 -163 404 -260 479 -311 517 -333 560 -338 52 -6
121 29 153 77 32 47 28 133 -9 179 -13 17 -107 84 -209 149 -102 66 -341 220
-531 344 -190 123 -352 227 -360 229 -8 3 -33 2 -56 -2z"/>
</g>
</svg>
