<svg width="960" height="192" viewBox="0 0 960 192" fill="none" xmlns="http://www.w3.org/2000/svg">
<g clip-path="url(#clip0_2_62)">
<path d="M230.091 143V49.9091H267.364C274.212 49.9091 279.924 50.9242 284.5 52.9545C289.076 54.9848 292.515 57.803 294.818 61.4091C297.121 64.9848 298.273 69.1061 298.273 73.7727C298.273 77.4091 297.545 80.6061 296.091 83.3636C294.636 86.0909 292.636 88.3333 290.091 90.0909C287.576 91.8182 284.697 93.0455 281.455 93.7727V94.6818C285 94.8333 288.318 95.8333 291.409 97.6818C294.53 99.5303 297.061 102.121 299 105.455C300.939 108.758 301.909 112.697 301.909 117.273C301.909 122.212 300.682 126.621 298.227 130.5C295.803 134.348 292.212 137.394 287.455 139.636C282.697 141.879 276.833 143 269.864 143H230.091ZM249.773 126.909H265.818C271.303 126.909 275.303 125.864 277.818 123.773C280.333 121.652 281.591 118.833 281.591 115.318C281.591 112.742 280.97 110.47 279.727 108.5C278.485 106.53 276.712 104.985 274.409 103.864C272.136 102.742 269.424 102.182 266.273 102.182H249.773V126.909ZM249.773 88.8636H264.364C267.061 88.8636 269.455 88.3939 271.545 87.4545C273.667 86.4848 275.333 85.1212 276.545 83.3636C277.788 81.6061 278.409 79.5 278.409 77.0455C278.409 73.6818 277.212 70.9697 274.818 68.9091C272.455 66.8485 269.091 65.8182 264.727 65.8182H249.773V88.8636ZM333.716 49.9091V143H314.352V49.9091H333.716ZM380.773 144.364C373.712 144.364 367.606 142.864 362.455 139.864C357.333 136.833 353.379 132.621 350.591 127.227C347.803 121.803 346.409 115.515 346.409 108.364C346.409 101.152 347.803 94.8485 350.591 89.4545C353.379 84.0303 357.333 79.8182 362.455 76.8182C367.606 73.7879 373.712 72.2727 380.773 72.2727C387.833 72.2727 393.924 73.7879 399.045 76.8182C404.197 79.8182 408.167 84.0303 410.955 89.4545C413.742 94.8485 415.136 101.152 415.136 108.364C415.136 115.515 413.742 121.803 410.955 127.227C408.167 132.621 404.197 136.833 399.045 139.864C393.924 142.864 387.833 144.364 380.773 144.364ZM380.864 129.364C384.076 129.364 386.758 128.455 388.909 126.636C391.061 124.788 392.682 122.273 393.773 119.091C394.894 115.909 395.455 112.288 395.455 108.227C395.455 104.167 394.894 100.545 393.773 97.3636C392.682 94.1818 391.061 91.6667 388.909 89.8182C386.758 87.9697 384.076 87.0455 380.864 87.0455C377.621 87.0455 374.894 87.9697 372.682 89.8182C370.5 91.6667 368.848 94.1818 367.727 97.3636C366.636 100.545 366.091 104.167 366.091 108.227C366.091 112.288 366.636 115.909 367.727 119.091C368.848 122.273 370.5 124.788 372.682 126.636C374.894 128.455 377.621 129.364 380.864 129.364ZM459.273 144.364C452.121 144.364 445.97 142.848 440.818 139.818C435.697 136.758 431.758 132.515 429 127.091C426.273 121.667 424.909 115.424 424.909 108.364C424.909 101.212 426.288 94.9394 429.045 89.5455C431.833 84.1212 435.788 79.8939 440.909 76.8636C446.03 73.803 452.121 72.2727 459.182 72.2727C465.273 72.2727 470.606 73.3788 475.182 75.5909C479.758 77.803 483.379 80.9091 486.045 84.9091C488.712 88.9091 490.182 93.6061 490.455 99H472.182C471.667 95.5151 470.303 92.7121 468.091 90.5909C465.909 88.4394 463.045 87.3636 459.5 87.3636C456.5 87.3636 453.879 88.1818 451.636 89.8182C449.424 91.4242 447.697 93.7727 446.455 96.8636C445.212 99.9545 444.591 103.697 444.591 108.091C444.591 112.545 445.197 116.333 446.409 119.455C447.652 122.576 449.394 124.955 451.636 126.591C453.879 128.227 456.5 129.045 459.5 129.045C461.712 129.045 463.697 128.591 465.455 127.682C467.242 126.773 468.712 125.455 469.864 123.727C471.045 121.97 471.818 119.864 472.182 117.409H490.455C490.152 122.742 488.697 127.439 486.091 131.5C483.515 135.53 479.955 138.682 475.409 140.955C470.864 143.227 465.485 144.364 459.273 144.364ZM520.398 122.909L520.443 99.6818H523.261L545.625 73.1818H567.852L537.807 108.273H533.216L520.398 122.909ZM502.852 143V49.9091H522.216V143H502.852ZM546.489 143L525.943 112.591L538.852 98.9091L569.17 143H546.489ZM610.716 143H577.716V49.9091H610.989C620.352 49.9091 628.413 51.7727 635.17 55.5C641.928 59.197 647.125 64.5151 650.761 71.4545C654.428 78.3939 656.261 86.697 656.261 96.3636C656.261 106.061 654.428 114.394 650.761 121.364C647.125 128.333 641.898 133.682 635.08 137.409C628.292 141.136 620.17 143 610.716 143ZM597.398 126.136H609.898C615.716 126.136 620.61 125.106 624.58 123.045C628.58 120.955 631.58 117.727 633.58 113.364C635.61 108.97 636.625 103.303 636.625 96.3636C636.625 89.4848 635.61 83.8636 633.58 79.5C631.58 75.1364 628.595 71.9242 624.625 69.8636C620.655 67.803 615.761 66.7727 609.943 66.7727H597.398V126.136ZM715.25 113.273V73.1818H734.614V143H716.023V130.318H715.295C713.72 134.409 711.098 137.697 707.432 140.182C703.795 142.667 699.356 143.909 694.114 143.909C689.447 143.909 685.341 142.848 681.795 140.727C678.25 138.606 675.477 135.591 673.477 131.682C671.508 127.773 670.508 123.091 670.477 117.636V73.1818H689.841V114.182C689.871 118.303 690.977 121.561 693.159 123.955C695.341 126.348 698.265 127.545 701.932 127.545C704.265 127.545 706.447 127.015 708.477 125.955C710.508 124.864 712.144 123.258 713.386 121.136C714.659 119.015 715.28 116.394 715.25 113.273ZM787.239 73.1818V87.7273H745.193V73.1818H787.239ZM754.739 56.4545H774.102V121.545C774.102 123.333 774.375 124.727 774.92 125.727C775.466 126.697 776.223 127.379 777.193 127.773C778.193 128.167 779.345 128.364 780.648 128.364C781.557 128.364 782.466 128.288 783.375 128.136C784.284 127.955 784.981 127.818 785.466 127.727L788.511 142.136C787.542 142.439 786.178 142.788 784.42 143.182C782.663 143.606 780.527 143.864 778.011 143.955C773.345 144.136 769.254 143.515 765.739 142.091C762.254 140.667 759.542 138.455 757.602 135.455C755.663 132.455 754.708 128.667 754.739 124.091V56.4545ZM830.648 144.364C823.496 144.364 817.345 142.848 812.193 139.818C807.072 136.758 803.133 132.515 800.375 127.091C797.648 121.667 796.284 115.424 796.284 108.364C796.284 101.212 797.663 94.9394 800.42 89.5455C803.208 84.1212 807.163 79.8939 812.284 76.8636C817.405 73.803 823.496 72.2727 830.557 72.2727C836.648 72.2727 841.981 73.3788 846.557 75.5909C851.133 77.803 854.754 80.9091 857.42 84.9091C860.087 88.9091 861.557 93.6061 861.83 99H843.557C843.042 95.5151 841.678 92.7121 839.466 90.5909C837.284 88.4394 834.42 87.3636 830.875 87.3636C827.875 87.3636 825.254 88.1818 823.011 89.8182C820.799 91.4242 819.072 93.7727 817.83 96.8636C816.587 99.9545 815.966 103.697 815.966 108.091C815.966 112.545 816.572 116.333 817.784 119.455C819.027 122.576 820.769 124.955 823.011 126.591C825.254 128.227 827.875 129.045 830.875 129.045C833.087 129.045 835.072 128.591 836.83 127.682C838.617 126.773 840.087 125.455 841.239 123.727C842.42 121.97 843.193 119.864 843.557 117.409H861.83C861.527 122.742 860.072 127.439 857.466 131.5C854.89 135.53 851.33 138.682 846.784 140.955C842.239 143.227 836.86 144.364 830.648 144.364ZM893.591 102.636V143H874.227V49.9091H893.045V85.5H893.864C895.439 81.3788 897.985 78.1515 901.5 75.8182C905.015 73.4545 909.424 72.2727 914.727 72.2727C919.576 72.2727 923.803 73.3333 927.409 75.4545C931.045 77.5455 933.864 80.5606 935.864 84.5C937.894 88.4091 938.894 93.0909 938.864 98.5455V143H919.5V102C919.53 97.697 918.439 94.3485 916.227 91.9545C914.045 89.5606 910.985 88.3636 907.045 88.3636C904.409 88.3636 902.076 88.9242 900.045 90.0455C898.045 91.1667 896.47 92.803 895.318 94.9545C894.197 97.0758 893.621 99.6364 893.591 102.636Z" fill="white"/>
<path d="M88.716 0.229724C84.6619 1.35819 82.4049 7.37668 84.8291 10.7203C85.3306 11.4726 90.9311 15.4431 98.2871 20.2914C105.225 24.847 115.298 31.4507 120.689 35.0032C126.081 38.5558 130.971 41.6905 131.514 41.983C132.852 42.6517 135.986 42.2756 137.324 41.2725C139.204 39.8515 140.04 38.3886 140.208 36.0481C140.5 31.9104 139.873 31.2835 126.959 22.9663C124.075 21.1273 115.256 15.276 107.315 9.96798C92.5612 0.0625439 91.4327 -0.522587 88.716 0.229724Z" fill="white"/>
<path d="M79.0613 21.2109C76.679 21.9214 75.8431 22.5901 73.9623 25.265C72.9174 26.7696 71.2456 29.0266 70.3261 30.2804C67.6095 33.8748 56.9517 49.5479 56.1158 51.1362C55.1963 52.9333 55.4471 56.1934 56.6174 57.7816C57.4533 58.9518 62.4687 62.4208 79.939 73.7891C94.5673 83.3184 95.4032 83.7781 97.8273 83.7781C100.711 83.7781 102.843 82.5243 104.682 79.7658L106.228 77.4253L107.315 78.6373C108.945 80.5181 124.827 100.329 127.042 103.255C128.129 104.676 129.257 105.93 129.55 106.013C130.302 106.18 141.67 112.282 141.503 112.408C141.42 112.45 140.082 113.202 138.452 114.08C127.962 119.722 118.725 124.696 115.674 126.409C113.709 127.496 110.993 129 109.614 129.753C108.234 130.505 103.929 132.846 100.001 134.977C96.1137 137.109 92.0596 139.282 91.0147 139.784L89.1339 140.661L84.7455 138.321C73.3354 132.135 67.9438 129.209 59.4594 124.528C54.4022 121.728 48.3837 118.468 46.085 117.214C43.7863 116.002 40.777 114.33 39.4396 113.536L36.9737 112.073L39.0216 111.029C42.407 109.357 54.3186 102.92 56.074 101.834L57.6622 100.831L50.7242 97.069L43.8281 93.3074L33.6718 98.7408C28.0713 101.708 22.4708 104.717 21.2169 105.344C19.4197 106.306 18.7092 106.974 17.9569 108.437C17.0792 110.193 17.0374 110.778 17.0374 118.97V127.663L9.97403 131.174C2.15835 135.102 1.07167 136.022 0.277566 139.491C-0.140385 141.414 -0.0985897 142.082 0.486542 143.838C0.862697 144.966 1.78219 146.471 2.5345 147.181C3.74656 148.352 16.5777 155.415 33.9644 164.443C39.9829 167.577 55.3635 175.727 71.789 184.504C75.1326 186.301 79.8136 188.726 82.1959 189.938C86.4173 192.027 86.668 192.111 89.5101 191.944C93.2716 191.735 93.3134 191.735 122.988 175.936C128.505 173.011 135.192 169.5 137.825 168.121C140.458 166.741 143.384 165.153 144.303 164.652C145.223 164.15 148.441 162.436 151.409 160.89C154.418 159.344 157.051 157.923 157.26 157.755C157.511 157.588 161.523 155.415 166.246 152.949C170.969 150.483 175.274 148.059 175.775 147.557C177.656 145.886 178.492 143.67 178.283 140.87C177.99 136.398 177.322 135.729 168.712 131.383L161.23 127.663V118.635C161.23 109.064 161.105 108.354 159.057 106.515C158.556 106.013 155.672 104.341 152.662 102.837C148.358 100.663 146.937 99.7021 145.766 98.281C144.972 97.2779 143.008 94.9374 141.378 93.0984C135.109 85.9933 121.943 70.6127 117.638 65.3883L116.51 63.9673L117.471 62.9224C118.976 61.2924 122.11 56.6113 122.946 54.7723C123.866 52.808 123.615 50.0913 122.319 47.9597C121.358 46.4551 120.815 46.079 87.0442 23.9276C82.7393 21.1273 81.1511 20.5839 79.0613 21.2109ZM35.5108 126.534C38.5619 128.248 46.7955 132.678 53.8171 136.44C60.8387 140.201 70.0336 145.133 74.2967 147.474C88.2144 155.081 88.3816 155.122 92.2686 153.576C94.5673 152.656 109.112 145.05 128.212 134.685C134.774 131.174 141.921 127.329 144.094 126.242C146.268 125.113 148.316 124.027 148.608 123.776C148.943 123.525 149.319 123.567 149.737 123.901C150.238 124.319 150.364 125.49 150.364 129.502C150.364 132.72 150.573 134.894 150.907 135.52C151.2 136.106 153.164 137.401 155.546 138.697C157.845 139.909 159.768 141.037 159.851 141.288C159.893 141.497 156.633 143.336 152.579 145.426C145.432 149.062 141.754 151.026 121.525 161.81C116.343 164.568 110.073 167.912 107.524 169.249C105.016 170.587 102.383 171.966 101.672 172.384C101.004 172.76 98.1617 174.264 95.4032 175.727C92.6447 177.148 90.1788 178.528 89.8862 178.737C89.5519 178.987 87.9219 178.319 84.8708 176.647C82.4049 175.309 77.3477 172.634 73.6698 170.712C67.8184 167.703 56.1994 161.517 35.2183 150.358C32 148.644 28.9072 147.014 28.3221 146.722C22.4708 143.67 18.2913 141.33 18.2913 141.079C18.2913 140.912 20.0049 139.951 22.1364 138.948C28.2803 135.938 27.9041 136.524 27.9041 129.795C27.9041 126.618 28.0295 123.901 28.1967 123.776C28.8236 123.107 30.3282 123.651 35.5108 126.534Z" fill="white"/>
<path d="M45.1655 64.1762C44.2042 64.3434 42.9921 64.8032 42.407 65.1375C40.8188 66.2242 39.5231 68.9409 39.5231 71.2814C39.5231 74.5414 40.6934 75.9207 47.1716 79.9748C50.2645 81.9392 57.8712 86.7874 64.0569 90.8415C84.0767 103.84 85.6649 104.759 87.4621 104.968C89.6354 105.219 92.5193 103.756 93.8567 101.75C95.1942 99.7857 95.027 96.1913 93.4806 94.2687C92.9373 93.5582 89.0085 90.7579 84.7454 88.0412C80.4823 85.2828 70.4933 78.8463 62.5522 73.6637C54.6112 68.5229 47.8404 64.1762 47.506 64.0926C47.1716 63.9673 46.1268 64.0091 45.1655 64.1762Z" fill="white"/>
</g>
<defs>
<clipPath id="clip0_2_62">
<rect width="960" height="192" fill="white"/>
</clipPath>
</defs>
</svg>
