<svg width="192" height="192" viewBox="0 0 192 192" fill="none" xmlns="http://www.w3.org/2000/svg">
<g clip-path="url(#clip0_1_42)">
<path d="M95.716 0.229709C91.6619 1.35818 89.4049 7.37667 91.8291 10.7203C92.3306 11.4726 97.9311 15.4431 105.287 20.2914C112.225 24.847 122.298 31.4506 127.689 35.0032C133.081 38.5558 137.971 41.6904 138.514 41.983C139.852 42.6517 142.986 42.2756 144.324 41.2725C146.204 39.8515 147.04 38.3886 147.208 36.0481C147.5 31.9104 146.873 31.2835 133.959 22.9662C131.075 21.1273 122.256 15.2759 114.315 9.96796C99.5612 0.0625286 98.4327 -0.522603 95.716 0.229709Z" fill="black"/>
<path d="M86.0613 21.2109C83.679 21.9214 82.8431 22.5901 80.9623 25.265C79.9174 26.7696 78.2456 29.0265 77.3261 30.2804C74.6095 33.8748 63.9517 49.5479 63.1158 51.1361C62.1963 52.9333 62.4471 56.1934 63.6174 57.7816C64.4533 58.9518 69.4687 62.4208 86.939 73.7891C101.567 83.3184 102.403 83.7781 104.827 83.7781C107.711 83.7781 109.843 82.5243 111.682 79.7658L113.228 77.4253L114.315 78.6373C115.945 80.5181 131.827 100.329 134.042 103.255C135.129 104.676 136.257 105.93 136.55 106.013C137.302 106.18 148.67 112.282 148.503 112.408C148.42 112.45 147.082 113.202 145.452 114.08C134.962 119.722 125.725 124.695 122.674 126.409C120.709 127.496 117.993 129 116.614 129.753C115.234 130.505 110.929 132.846 107.001 134.977C103.114 137.109 99.0596 139.282 98.0147 139.784L96.1339 140.661L91.7455 138.321C80.3354 132.135 74.9438 129.209 66.4594 124.528C61.4022 121.728 55.3837 118.468 53.085 117.214C50.7863 116.002 47.777 114.33 46.4396 113.536L43.9737 112.073L46.0216 111.029C49.407 109.357 61.3186 102.92 63.074 101.834L64.6622 100.831L57.7242 97.0689L50.8281 93.3074L40.6718 98.7408C35.0713 101.708 29.4708 104.717 28.2169 105.344C26.4197 106.306 25.7092 106.974 24.9569 108.437C24.0792 110.193 24.0374 110.778 24.0374 118.97V127.663L16.974 131.174C9.15835 135.102 8.07167 136.022 7.27757 139.491C6.85962 141.414 6.90141 142.082 7.48654 143.838C7.8627 144.966 8.78219 146.471 9.5345 147.181C10.7466 148.352 23.5777 155.415 40.9644 164.443C46.9829 167.577 62.3635 175.727 78.789 184.504C82.1326 186.301 86.8136 188.726 89.1959 189.938C93.4173 192.027 93.668 192.111 96.5101 191.944C100.272 191.735 100.313 191.735 129.988 175.936C135.505 173.011 142.192 169.5 144.825 168.121C147.458 166.741 150.384 165.153 151.303 164.652C152.223 164.15 155.441 162.436 158.409 160.89C161.418 159.344 164.051 157.923 164.26 157.755C164.511 157.588 168.523 155.415 173.246 152.949C177.969 150.483 182.274 148.059 182.775 147.557C184.656 145.886 185.492 143.67 185.283 140.87C184.99 136.398 184.322 135.729 175.712 131.383L168.23 127.663V118.635C168.23 109.064 168.105 108.354 166.057 106.515C165.556 106.013 162.672 104.341 159.662 102.837C155.358 100.663 153.937 99.702 152.766 98.281C151.972 97.2779 150.008 94.9374 148.378 93.0984C142.109 85.9932 128.943 70.6127 124.638 65.3883L123.51 63.9672L124.471 62.9224C125.976 61.2924 129.11 56.6113 129.946 54.7723C130.866 52.8079 130.615 50.0913 129.319 47.9597C128.358 46.4551 127.815 46.0789 94.0442 23.9275C89.7393 21.1273 88.1511 20.5839 86.0613 21.2109ZM42.5108 126.534C45.5619 128.248 53.7955 132.678 60.8171 136.44C67.8387 140.201 77.0336 145.133 81.2967 147.474C95.2144 155.081 95.3816 155.122 99.2686 153.576C101.567 152.656 116.112 145.05 135.212 134.685C141.774 131.174 148.921 127.329 151.094 126.242C153.268 125.113 155.316 124.027 155.608 123.776C155.943 123.525 156.319 123.567 156.737 123.901C157.238 124.319 157.364 125.49 157.364 129.502C157.364 132.72 157.573 134.893 157.907 135.52C158.2 136.106 160.164 137.401 162.546 138.697C164.845 139.909 166.768 141.037 166.851 141.288C166.893 141.497 163.633 143.336 159.579 145.426C152.432 149.062 148.754 151.026 128.525 161.81C123.343 164.568 117.073 167.912 114.524 169.249C112.016 170.587 109.383 171.966 108.672 172.384C108.004 172.76 105.162 174.264 102.403 175.727C99.6447 177.148 97.1788 178.528 96.8862 178.737C96.5519 178.987 94.9219 178.319 91.8708 176.647C89.4049 175.309 84.3477 172.634 80.6698 170.712C74.8184 167.703 63.1994 161.517 42.2183 150.358C39 148.644 35.9072 147.014 35.3221 146.722C29.4708 143.67 25.2913 141.33 25.2913 141.079C25.2913 140.912 27.0049 139.951 29.1364 138.948C35.2803 135.938 34.9041 136.524 34.9041 129.794C34.9041 126.618 35.0295 123.901 35.1967 123.776C35.8236 123.107 37.3282 123.651 42.5108 126.534Z" fill="black"/>
<path d="M52.1654 64.1762C51.2042 64.3434 49.9921 64.8032 49.407 65.1375C47.8187 66.2242 46.5231 68.9409 46.5231 71.2814C46.5231 74.5414 47.6934 75.9206 54.1716 79.9748C57.2644 81.9391 64.8711 86.7874 71.0568 90.8415C91.0767 103.84 92.6649 104.759 94.4621 104.968C96.6354 105.219 99.5193 103.756 100.857 101.75C102.194 99.7856 102.027 96.1913 100.481 94.2687C99.9372 93.5582 96.0085 90.7579 91.7454 88.0412C87.4823 85.2827 77.4933 78.8463 69.5522 73.6637C61.6111 68.5229 54.8403 64.1762 54.506 64.0926C54.1716 63.9672 53.1267 64.009 52.1654 64.1762Z" fill="black"/>
</g>
<defs>
<clipPath id="clip0_1_42">
<rect width="192" height="192" fill="white"/>
</clipPath>
</defs>
</svg>
